<svg version="1.2" xmlns="http://www.w3.org/2000/svg" viewBox="0 0 512 150" width="512" height="150">
	<title>GART - Logo (512x150)</title>
	<style>
	</style>
	<g id="Title">
		<path id="GART" aria-label="GART"  d="m112.04 72.05v36.09q-4.87 5.43-14.26 8.75q-9.39 3.32-20.59 3.32q-17.21 0-27.5-10.56q-10.29-10.57-11.02-29.39l-0.06-7.61q0-12.97 4.58-22.63q4.57-9.72 13.06-14.91q8.54-5.25 19.74-5.25q16.37 0 25.4 7.55q9.09 7.48 10.59 22.39h-20.34q-1.09-7.36-4.7-10.5q-3.61-3.14-10.23-3.14q-7.94 0-12.28 6.76q-4.33 6.76-4.39 19.31v5.31q0 13.16 4.45 19.79q4.52 6.58 14.15 6.58q8.24 0 12.28-3.68v-13.64h-14.69v-14.54zm106.74 46.95l-5.12-16.41h-28.95l-5.06 16.41h-22.57l32.14-87.87h19.87l32.38 87.87zm-19.62-63.25l-9.39 30.48h18.83zm136.29 63.25l-15.47-31.02h-11.43v31.02h-21.13v-87.87h34.49q15.59 0 24.38 6.94q8.78 6.94 8.78 19.61q0 9.17-3.73 15.21q-3.67 6.03-11.55 9.78l18.29 35.42v0.91zm-26.9-71.52v24.14h13.36q6.02 0 9.03-3.14q3.07-3.19 3.07-8.87q0-5.67-3.07-8.87q-3.07-3.26-9.03-3.26zm164.64-16.35v16.35h-26.31v71.52h-21.12v-71.52h-25.82v-16.35z" />
	</g>
</svg>