<svg version="1.2" xmlns="http://www.w3.org/2000/svg" viewBox="0 0 512 200" width="512" height="200">
	<title>GART + TEXT - Logo (512x512)</title>
	<style>
	</style>
	<g id="Title">
		<path id="GART" aria-label="GART"  d="m112.04 78.05v36.09q-4.87 5.43-14.26 8.75q-9.39 3.32-20.59 3.32q-17.21 0-27.5-10.56q-10.29-10.57-11.02-29.39l-0.06-7.61q0-12.97 4.58-22.63q4.57-9.72 13.06-14.91q8.54-5.25 19.74-5.25q16.37 0 25.4 7.55q9.09 7.48 10.59 22.39h-20.34q-1.09-7.36-4.7-10.5q-3.61-3.14-10.23-3.14q-7.94 0-12.28 6.76q-4.33 6.76-4.39 19.31v5.31q0 13.16 4.45 19.79q4.52 6.58 14.15 6.58q8.24 0 12.28-3.68v-13.64h-14.69v-14.54zm106.74 46.95l-5.12-16.41h-28.95l-5.06 16.41h-22.57l32.14-87.87h19.87l32.38 87.87zm-19.62-63.25l-9.39 30.48h18.83zm136.29 63.25l-15.47-31.02h-11.43v31.02h-21.13v-87.87h34.49q15.59 0 24.38 6.94q8.78 6.94 8.78 19.61q0 9.17-3.73 15.21q-3.67 6.03-11.55 9.78l18.29 35.42v0.91zm-26.9-71.52v24.14h13.36q6.02 0 9.03-3.14q3.07-3.19 3.07-8.87q0-5.67-3.07-8.87q-3.07-3.26-9.03-3.26zm164.64-16.35v16.35h-26.31v71.52h-21.12v-71.52h-25.82v-16.35z" />
		<path id="Gambling Analytics In Real Time" aria-label="Gambling Analytics In Real Time"  d="m57.26 147.06v8.17q-1.15 1.51-3.21 2.29q-2.05 0.77-4.65 0.77q-2.68 0-4.75-1.21q-2.07-1.22-3.19-3.47q-1.12-2.28-1.16-5.29v-1.67q0-4.84 2.31-7.55q2.32-2.72 6.46-2.72q3.56 0 5.66 1.76q2.09 1.75 2.52 5.07h-3.63q-0.62-3.86-4.47-3.86q-2.49 0-3.8 1.8q-1.29 1.79-1.33 5.26v1.64q0 3.46 1.45 5.38q1.47 1.9 4.06 1.9q2.84 0 4.04-1.29v-4.17h-4.39v-2.81zm16.83 10.94h-3.64q-0.23-0.45-0.41-1.48q-1.69 1.77-4.16 1.77q-2.38 0-3.89-1.36q-1.51-1.36-1.51-3.37q0-2.53 1.87-3.88q1.89-1.36 5.39-1.36h2.19v-1.04q0-1.23-0.69-1.97q-0.69-0.74-2.1-0.74q-1.21 0-1.99 0.61q-0.77 0.6-0.77 1.54h-3.56q0-1.3 0.86-2.43q0.86-1.14 2.34-1.79q1.5-0.64 3.33-0.64q2.78 0 4.44 1.4q1.65 1.4 1.7 3.93v7.15q0 2.14 0.6 3.41zm-7.55-2.56q1.06 0 1.98-0.52q0.94-0.51 1.41-1.37v-2.99h-1.92q-1.98 0-2.98 0.69q-0.99 0.69-0.99 1.95q0 1.02 0.67 1.64q0.69 0.6 1.83 0.6zm10.67-13.29h3.35l0.1 1.66q1.67-1.95 4.58-1.95q3.17 0 4.35 2.43q1.72-2.43 4.86-2.43q2.62 0 3.9 1.45q1.28 1.45 1.31 4.28v10.41h-3.56v-10.31q0-1.51-0.65-2.21q-0.66-0.71-2.19-0.71q-1.21 0-1.99 0.66q-0.76 0.65-1.07 1.7l0.02 10.87h-3.56v-10.43q-0.08-2.8-2.86-2.8q-2.14 0-3.03 1.75v11.48h-3.56zm40.02 7.88v0.21q0 3.69-1.66 5.87q-1.64 2.18-4.52 2.18q-2.79 0-4.34-2l-0.18 1.71h-3.22v-22.5h3.56v8.17q1.54-1.81 4.15-1.81q2.9 0 4.55 2.15q1.66 2.15 1.66 6.02zm-3.56 0.35v-0.45q0-2.58-0.91-3.87q-0.91-1.29-2.64-1.29q-2.31 0-3.25 2.02v6.54q0.95 2.06 3.28 2.06q1.67 0 2.58-1.24q0.91-1.25 0.94-3.77zm10.32-14.88v22.5h-3.55v-22.5zm7.66 6.65v15.85h-3.56v-15.85zm-3.78-4.12q0-0.82 0.51-1.36q0.53-0.54 1.49-0.54q0.97 0 1.5 0.54q0.53 0.54 0.53 1.36q0 0.81-0.53 1.35q-0.53 0.53-1.5 0.53q-0.96 0-1.49-0.53q-0.51-0.54-0.51-1.35zm7.6 4.12h3.35l0.11 1.83q1.76-2.12 4.61-2.12q4.95 0 5.04 5.67v10.47h-3.56v-10.27q0-1.51-0.66-2.22q-0.64-0.74-2.12-0.74q-2.16 0-3.21 1.95v11.28h-3.56zm16.11 7.81q0-3.69 1.73-5.89q1.75-2.21 4.62-2.21q2.71 0 4.26 1.89l0.16-1.6h3.21v15.37q0 3.12-1.95 4.92q-1.93 1.8-5.23 1.8q-1.74 0-3.41-0.72q-1.66-0.73-2.52-1.9l1.68-2.14q1.64 1.95 4.05 1.95q1.77 0 2.79-0.95q1.03-0.97 1.03-2.83v-1.07q-1.54 1.71-4.1 1.71q-2.79 0-4.56-2.21q-1.76-2.21-1.76-6.12zm3.55 0.31q0 2.38 0.97 3.76q0.98 1.36 2.71 1.36q2.15 0 3.19-1.84v-6.98q-1.01-1.8-3.17-1.8q-1.75 0-2.73 1.39q-0.97 1.4-0.97 4.11zm35.58 7.73l-1.74-4.97h-8.27l-1.72 4.97h-3.86l8.06-21.33h3.33l8.07 21.33zm-5.88-16.8l-3.09 8.85h6.18zm11.06 0.95h3.36l0.1 1.83q1.76-2.12 4.61-2.12q4.96 0 5.04 5.66v10.48h-3.56v-10.27q0-1.51-0.66-2.23q-0.64-0.73-2.12-0.73q-2.15 0-3.21 1.95v11.28h-3.56zm29.84 15.85h-3.63q-0.24-0.46-0.41-1.48q-1.7 1.77-4.16 1.77q-2.39 0-3.9-1.36q-1.51-1.36-1.51-3.37q0-2.54 1.88-3.88q1.89-1.37 5.39-1.37h2.18v-1.04q0-1.23-0.69-1.96q-0.69-0.75-2.09-0.75q-1.22 0-1.99 0.62q-0.78 0.6-0.78 1.54h-3.56q0-1.31 0.86-2.43q0.87-1.15 2.35-1.79q1.49-0.65 3.32-0.65q2.79 0 4.44 1.41q1.66 1.39 1.7 3.93v7.15q0 2.13 0.6 3.41zm-7.54-2.57q1.05 0 1.98-0.51q0.93-0.51 1.4-1.37v-2.99h-1.92q-1.97 0-2.97 0.69q-1 0.68-1 1.94q0 1.03 0.68 1.64q0.69 0.6 1.83 0.6zm14.46-19.93v22.5h-3.56v-22.5zm6.06 6.65l3.36 10.75l3.22-10.75h3.79l-6.3 18.25q-1.45 4-4.92 4q-0.78 0-1.71-0.26v-2.76l0.67 0.05q1.35 0 2.02-0.49q0.69-0.5 1.09-1.65l0.51-1.36l-5.57-15.78zm13.32-3.85h3.56v3.85h2.8v2.64h-2.8v8.84q0 0.91 0.35 1.32q0.37 0.4 1.29 0.4q0.61 0 1.24-0.15v2.75q-1.21 0.34-2.34 0.34q-4.1 0-4.1-4.52v-8.98h-2.61v-2.64h2.61zm12.86 3.85v15.85h-3.56v-15.85zm-3.78-4.11q0-0.83 0.51-1.37q0.53-0.54 1.5-0.54q0.96 0 1.49 0.54q0.53 0.54 0.53 1.37q0 0.8-0.53 1.34q-0.53 0.53-1.49 0.53q-0.97 0-1.5-0.53q-0.51-0.54-0.51-1.34zm14.17 17.41q1.33 0 2.21-0.77q0.88-0.78 0.94-1.92h3.35q-0.06 1.48-0.92 2.77q-0.87 1.27-2.35 2.02q-1.48 0.74-3.19 0.74q-3.33 0-5.27-2.15q-1.95-2.15-1.95-5.95v-0.36q0-3.62 1.93-5.79q1.94-2.18 5.28-2.18q2.82 0 4.59 1.65q1.79 1.64 1.88 4.32h-3.35q-0.06-1.36-0.94-2.24q-0.87-0.88-2.21-0.88q-1.73 0-2.67 1.26q-0.94 1.25-0.95 3.8v0.57q0 2.58 0.92 3.85q0.94 1.26 2.7 1.26zm18.07-1.76q0-0.95-0.79-1.45q-0.78-0.49-2.59-0.87q-1.82-0.39-3.03-0.97q-2.67-1.29-2.67-3.74q0-2.05 1.73-3.42q1.73-1.38 4.39-1.38q2.84 0 4.59 1.4q1.76 1.41 1.76 3.65h-3.56q0-1.02-0.77-1.7q-0.76-0.69-2.02-0.69q-1.17 0-1.92 0.55q-0.73 0.54-0.73 1.45q0 0.82 0.69 1.27q0.69 0.46 2.78 0.92q2.1 0.46 3.28 1.1q1.21 0.63 1.78 1.53q0.58 0.89 0.58 2.16q0 2.14-1.77 3.48q-1.77 1.31-4.64 1.31q-1.95 0-3.47-0.7q-1.53-0.7-2.38-1.93q-0.85-1.23-0.85-2.65h3.46q0.07 1.26 0.95 1.94q0.88 0.68 2.33 0.68q1.41 0 2.14-0.53q0.73-0.54 0.73-1.41zm18.33-17.02v21.33h-3.69v-21.33zm4.16 5.48h3.35l0.1 1.83q1.76-2.12 4.62-2.12q4.95 0 5.04 5.67v10.47h-3.56v-10.27q0-1.51-0.66-2.22q-0.65-0.74-2.13-0.74q-2.15 0-3.2 1.95v11.28h-3.56zm36.66 15.85l-4.28-8.22h-4.13v8.22h-3.7v-21.33h7.5q3.69 0 5.69 1.66q2.01 1.65 2.01 4.79q0 2.14-1.04 3.59q-1.02 1.43-2.87 2.21l4.79 8.89v0.19zm-8.41-18.34v7.15h3.81q1.88 0 2.93-0.94q1.06-0.95 1.06-2.59q0-1.71-0.99-2.65q-0.96-0.94-2.9-0.97zm21.65 18.63q-3.38 0-5.49-2.12q-2.09-2.14-2.09-5.68v-0.44q0-2.38 0.9-4.24q0.93-1.87 2.58-2.91q1.66-1.04 3.69-1.04q3.24 0 5 2.06q1.77 2.07 1.77 5.85v1.43h-10.35q0.16 1.97 1.3 3.11q1.16 1.14 2.9 1.14q2.45 0 3.98-1.98l1.92 1.84q-0.95 1.42-2.55 2.21q-1.58 0.77-3.56 0.77zm-0.42-13.58q-1.47 0-2.37 1.03q-0.9 1.03-1.15 2.86h6.79v-0.27q-0.12-1.78-0.96-2.69q-0.83-0.93-2.31-0.93zm22.65 13.29h-3.64q-0.23-0.45-0.41-1.48q-1.7 1.77-4.16 1.77q-2.39 0-3.89-1.36q-1.51-1.36-1.51-3.37q0-2.53 1.87-3.88q1.89-1.36 5.39-1.36h2.19v-1.04q0-1.23-0.69-1.96q-0.69-0.75-2.1-0.75q-1.21 0-1.99 0.61q-0.78 0.6-0.78 1.54h-3.56q0-1.3 0.87-2.43q0.86-1.14 2.34-1.79q1.5-0.64 3.33-0.64q2.78 0 4.44 1.4q1.65 1.4 1.7 3.93v7.15q0 2.14 0.6 3.41zm-7.55-2.56q1.06 0 1.98-0.51q0.94-0.52 1.41-1.38v-2.99h-1.92q-1.98 0-2.98 0.69q-0.99 0.69-0.99 1.95q0 1.02 0.67 1.64q0.69 0.6 1.83 0.6zm14.46-19.94v22.5h-3.56v-22.5zm26.22 1.17v2.99h-6.65v18.34h-3.68v-18.34h-6.59v-2.99zm6.24 5.48v15.85h-3.56v-15.85zm-3.78-4.11q0-0.82 0.52-1.37q0.52-0.54 1.49-0.54q0.97 0 1.49 0.54q0.53 0.55 0.53 1.37q0 0.8-0.53 1.34q-0.52 0.53-1.49 0.53q-0.97 0-1.49-0.53q-0.52-0.54-0.52-1.34zm7.65 4.11h3.35l0.11 1.66q1.67-1.95 4.57-1.95q3.18 0 4.35 2.43q1.73-2.43 4.86-2.43q2.62 0 3.9 1.45q1.29 1.45 1.32 4.28v10.41h-3.56v-10.31q0-1.51-0.66-2.21q-0.66-0.71-2.19-0.71q-1.21 0-1.99 0.66q-0.76 0.65-1.07 1.7l0.02 10.87h-3.56v-10.43q-0.08-2.8-2.86-2.8q-2.14 0-3.03 1.75v11.48h-3.56zm33.09 16.14q-3.38 0-5.49-2.12q-2.1-2.14-2.1-5.68v-0.44q0-2.38 0.91-4.24q0.92-1.87 2.58-2.91q1.65-1.04 3.69-1.04q3.24 0 5 2.06q1.77 2.07 1.77 5.85v1.43h-10.36q0.16 1.97 1.31 3.11q1.15 1.14 2.9 1.14q2.44 0 3.98-1.98l1.92 1.84q-0.95 1.42-2.55 2.21q-1.58 0.77-3.56 0.77zm-0.42-13.57q-1.47 0-2.38 1.02q-0.89 1.03-1.14 2.86h6.78v-0.27q-0.11-1.78-0.95-2.69q-0.83-0.92-2.31-0.92z" />
	</g>
</svg>